<?xml version="1.0" encoding="utf-8"?>
<svg version="1.1" id="_x3C_Layer_x3E_" xmlns="http://www.w3.org/2000/svg" x="0px" y="0px" viewBox="0 0 2760 1840" style="enable-background:new 0 0 2760 1840;" xmlns:bx="https://boxy-svg.com" width="2760px" height="1840px"><defs><bx:export><bx:file format="svg"/><bx:file format="png" href="#object-0"/></bx:export></defs><rect style="fill: rgb(255, 255, 255); visibility: hidden;" width="2760" height="1840"/><g><ellipse style="opacity:0.5;fill:#B8D5DC;" cx="1407.203" cy="1500.293" rx="993.101" ry="126.609" id="object-0"/><g><polygon style="fill:#99C4CC;" points="630.61,1461.02 599.161,1461.02 627.32,1205.83 658.769,1205.83 &#9;&#9;"/><g><polygon style="fill:#99C4CC;" points="897.38,1285.749 441.957,1285.749 372.325,1015.838 827.747,1015.838 &#9;&#9;&#9;"/><polygon style="fill:#B8D5DC;" points="914.772,1285.749 459.349,1285.749 389.717,1015.838 845.14,1015.838 &#9;&#9;&#9;"/><g><rect x="407.138" y="1081.442" style="fill:#99C4CC;" width="455.425" height="3.871"/></g><g><rect x="424.533" y="1148.861" style="fill:#99C4CC;" width="455.425" height="3.871"/></g><g><rect x="441.927" y="1216.269" style="fill:#99C4CC;" width="455.419" height="3.871"/></g><g><rect x="504.118" y="1011.422" transform="matrix(0.9683 -0.2498 0.2498 0.9683 -271.4418 162.907)" style="fill:#99C4CC;" width="3.863" height="278.749"/></g><g><rect x="600.4" y="1011.423" transform="matrix(0.9683 -0.2498 0.2498 0.9683 -268.3693 186.9418)" style="fill:#99C4CC;" width="3.863" height="278.748"/></g><g><rect x="696.682" y="1011.422" transform="matrix(0.9683 -0.2498 0.2498 0.9683 -265.3363 211.0123)" style="fill:#99C4CC;" width="3.863" height="278.749"/></g><g><rect x="792.963" y="1011.423" transform="matrix(0.9683 -0.2498 0.2498 0.9683 -262.2648 235.0433)" style="fill:#99C4CC;" width="3.863" height="278.748"/></g></g><path style="fill:#99C4CC;" d="M607.895,1437.797h53.308c12.826,0,23.223,10.397,23.223,23.223l0,0h-76.531V1437.797z"/></g><g><polygon style="fill:#99C4CC;" points="1105.342,1437.433 1084.651,1437.433 1103.177,1269.536 1123.869,1269.536 &#9;&#9;"/><polygon style="fill:#99C4CC;" points="1280.858,1358.327 981.222,1358.327 935.409,1180.745 1235.044,1180.745 &#9;&#9;"/><polygon style="fill:#B8D5DC;" points="1292.3,1358.327 992.665,1358.327 946.852,1180.745 1246.487,1180.745 &#9;&#9;"/><g><rect x="958.314" y="1223.904" style="fill:#99C4CC;" width="299.638" height="2.557"/></g><g><rect x="969.756" y="1268.252" style="fill:#99C4CC;" width="299.638" height="2.557"/></g><g><rect x="981.203" y="1312.612" style="fill:#99C4CC;" width="299.633" height="2.557"/></g><g><rect x="1022.119" y="1177.835" transform="matrix(0.9683 -0.2498 0.2498 0.9683 -284.653 295.8459)" style="fill:#99C4CC;" width="2.543" height="183.404"/></g><g><rect x="1085.465" y="1177.834" transform="matrix(0.9683 -0.2498 0.2498 0.9683 -282.6751 311.7103)" style="fill:#99C4CC;" width="2.543" height="183.405"/></g><g><rect x="1148.814" y="1177.834" transform="matrix(0.9683 -0.2498 0.2498 0.9683 -280.6664 327.534)" style="fill:#99C4CC;" width="2.543" height="183.405"/></g><g><rect x="1212.157" y="1177.834" transform="matrix(0.9683 -0.2498 0.2498 0.9683 -278.6578 343.3561)" style="fill:#99C4CC;" width="2.543" height="183.405"/></g><path style="fill:#99C4CC;" d="M1090.397,1422.154h35.073c8.438,0,15.279,6.841,15.279,15.279l0,0h-50.352V1422.154z"/></g><g style="opacity:0.8;"><path style="fill:#FFFFFF;" d="M2059.284,450.022c0,0-20.799-40.003-73.428-34.99c-52.629,5.012-46.364,45.111-71.425,41.352 c-25.062-3.759-60.148,0-67.666,25.061c-7.518,25.062-41.351,11.278-42.605,32.58c-1.253,21.302,38.845,36.339,85.209,17.543 c46.364-18.796,68.919,14.602,134.079,8.554c65.16-6.048,73.233-13.566,111.801-9.807c38.568,3.759,37.653-22.648,20.109-40.192 C2137.814,472.579,2066.803,474.25,2059.284,450.022z"/></g><g style="opacity:0.6;"><path style="fill:#FFFFFF;" d="M1324.856,259.242c0,0-14.512-27.911-51.233-24.414c-36.721,3.497-32.349,31.475-49.836,28.852 c-17.486-2.623-41.967,0-47.213,17.486c-5.246,17.486-28.852,7.869-29.726,22.732s27.104,25.355,59.453,12.24 c32.349-13.115,48.087,10.188,93.551,5.969c45.464-4.22,51.097-9.466,78.007-6.843c26.91,2.623,26.271-15.802,14.031-28.043 C1379.648,274.98,1330.102,276.146,1324.856,259.242z"/></g><g style="opacity:0.6;"><path style="fill:#FFFFFF;" d="M703.247,494.557c0,0-16.422-35.147-57.976-30.743c-41.554,4.404-36.607,39.635-56.395,36.332 c-19.788-3.303-47.49,0-53.427,22.019c-5.936,22.019-32.65,9.909-33.639,28.625c-0.989,18.716,30.671,31.928,67.278,15.414 c36.607-16.515,54.416,12.83,105.864,7.516c51.448-5.314,57.822-11.92,88.274-8.617s29.729-19.899,15.877-35.313 C765.251,514.375,709.183,515.843,703.247,494.557z"/></g><g><polygon style="fill:#FFFFFF;" points="2232.049,1446.905 2206.517,1446.905 2208.65,1258.916 2211.915,970.97 2223.486,970.97 &#10;&#9;&#9;&#9;2228.063,1225.347 &#9;&#9;"/><path style="fill:#B8D5DC;" d="M2228.063,1225.347c-5.691,8.488-12.702,19.931-19.413,33.569l3.265-287.946h11.57 L2228.063,1225.347z"/><g><path style="fill:#FFFFFF;" d="M2216.383,976.284l-5.209-15.775c-5.582-16.905-2.187-35.489,9.013-49.328l99.423-122.854 c1.741-2.151,5.101,0.037,3.837,2.499l-95.661,186.346C2225.274,982.064,2218.108,981.506,2216.383,976.284z"/><path style="fill:#FFFFFF;" d="M2221.2,966.571l16.597-0.745c17.785-0.798,34.756,7.5,45.047,22.028l91.359,128.963 c1.6,2.259-1.416,4.9-3.444,3.017L2217.26,977.307C2213.23,973.565,2215.706,966.818,2221.2,966.571z"/><path style="fill:#FFFFFF;" d="M2226.469,970.343l-8.448,14.305c-9.053,15.33-25.278,25.005-43.068,25.683l-157.93,6.015 c-2.766,0.105-3.33-3.864-0.644-4.533l203.253-50.637C2224.969,959.845,2229.266,965.607,2226.469,970.343z"/><path style="fill:#366F90;" d="M2207.695,978.127c-3.389-6.645-0.749-14.779,5.896-18.167c6.645-3.389,14.779-0.749,18.167,5.896 c3.389,6.645,0.749,14.779-5.896,18.167C2219.217,987.412,2211.083,984.772,2207.695,978.127z"/></g><path style="fill:#FFFFFF;" d="M2264.561,1454.564h-90.556l0,0c0-14.871,12.055-26.927,26.927-26.927h36.702 C2252.505,1427.637,2264.561,1439.693,2264.561,1454.564L2264.561,1454.564z"/></g><g><polygon style="fill:#FFFFFF;" points="2097.97,1479.989 2056.009,1479.989 2059.515,1220.97 2064.881,824.227 2083.896,824.227 &#10;&#9;&#9;&#9;2091.42,1174.717 &#9;&#9;"/><path style="fill:#B8D5DC;" d="M2091.42,1174.717c-9.354,11.695-20.875,27.462-31.905,46.253l5.366-396.742h19.016 L2091.42,1174.717z"/><g><path style="fill:#FFFFFF;" d="M2076.281,817.027l10.204,22.781c10.935,24.412,8.709,52.709-5.909,75.111l-129.772,198.869 c-2.273,3.483-7.63,0.727-6.118-3.147l114.416-293.192C2062.107,809.75,2072.903,809.485,2076.281,817.027z"/><path style="fill:#FFFFFF;" d="M2070.57,832.282l-24.692,3.658c-26.461,3.92-53.099-5.883-70.708-26.018l-156.322-178.754 c-2.738-3.131,1.365-7.542,4.686-5.038l251.281,189.501C2081.411,820.607,2078.744,831.071,2070.57,832.282z"/><path style="fill:#FFFFFF;" d="M2062.116,827.453l10.434-22.677c11.181-24.301,33.949-41.25,60.436-44.99l235.133-33.201 c4.118-0.581,5.569,5.265,1.657,6.677l-296.035,106.845C2065.968,842.913,2058.662,834.96,2062.116,827.453z"/><path style="fill:#366F90;" d="M2088.985,812.939c6.083,9.412,3.385,21.974-6.028,28.058c-9.412,6.083-21.974,3.385-28.058-6.028 c-6.083-9.412-3.385-21.974,6.028-28.058C2070.34,800.828,2082.902,803.526,2088.985,812.939z"/></g><path style="fill:#FFFFFF;" d="M2151.401,1492.576h-148.823l0,0c0-24.44,19.813-44.253,44.253-44.253h60.318 C2131.589,1448.323,2151.401,1468.136,2151.401,1492.576L2151.401,1492.576z"/></g><g><path style="fill: rgb(76, 175, 79);" d="M1050.462,1060.347c1.607,47.318,5.401,94.53,7.988,141.797c1.041,19.022,2.258,37.95-3.127,56.48 c-4.39,15.108-12.883,28.247-24.894,38.417c-32.839,27.806-79.136,25.536-119.389,29.373 c-34.764,3.314-73.887,13.007-96.533,41.848c-24.818,31.609-17.888,74.538,6.267,104.368 c26.384,32.583,70.135,44.518,110.081,48.848c46.564,5.048,94.585-0.235,138.931-15.316c10.835-3.685,21.564-8.028,31.564-13.623 c10.031-5.613,19.167-12.615,28.437-19.369c17.195-12.528,35.526-22.776,55.707-29.657c85.176-29.04,175.674-3.635,254.457,32.364 c10.459,4.779,20.823,9.76,31.133,14.851c9.044,4.465,17.021-9.094,7.937-13.578c-79.22-39.111-165.644-72.044-255.477-58.896 c-20.492,2.999-40.438,8.598-59.46,16.786c-20.019,8.617-36.957,21.037-54.614,33.573 c-37.277,26.467-85.701,36.768-130.775,38.687c-41.502,1.768-88.175-2.488-123.966-25.483 c-29.109-18.701-51.766-58.528-34.976-92.658c15.361-31.225,53.685-42.913,85.809-46.459 c42.164-4.654,87.578-2.015,124.673-26.105c29.283-19.017,43.62-50.096,44.887-84.395c0.843-22.828-1.828-46.065-3.255-68.839 c-1.469-23.441-3.023-46.877-4.25-70.332c-0.57-10.89-1.061-21.783-1.431-32.682 C1065.845,1050.254,1050.118,1050.208,1050.462,1060.347L1050.462,1060.347z"/></g><g><path style="fill: rgb(121, 195, 123);" d="M1055.967,1060.347c1.606,47.318,5.401,94.53,7.988,141.797c1.041,19.022,2.258,37.95-3.127,56.48 c-4.391,15.108-12.883,28.247-24.894,38.417c-32.839,27.806-79.135,25.536-119.389,29.373 c-34.764,3.314-73.887,13.007-96.533,41.848c-24.819,31.609-17.888,74.538,6.267,104.368 c26.385,32.583,70.135,44.518,110.081,48.848c46.564,5.048,94.585-0.235,138.932-15.316c10.835-3.685,21.564-8.028,31.564-13.623 c10.031-5.613,19.167-12.615,28.437-19.369c17.195-12.528,35.526-22.776,55.707-29.657c85.176-29.04,175.674-3.635,254.457,32.364 c10.459,4.779,20.823,9.76,31.133,14.851c9.044,4.465,17.021-9.094,7.937-13.578c-79.22-39.111-165.644-72.044-255.477-58.896 c-20.492,2.999-40.438,8.598-59.46,16.786c-20.018,8.617-36.957,21.037-54.613,33.573 c-37.277,26.467-85.701,36.768-130.775,38.687c-41.502,1.768-88.175-2.488-123.966-25.483 c-29.108-18.701-51.765-58.528-34.976-92.658c15.361-31.225,53.685-42.913,85.809-46.459 c42.164-4.654,87.578-2.015,124.673-26.105c29.283-19.017,43.62-50.096,44.887-84.395c0.843-22.828-1.828-46.065-3.255-68.839 c-1.469-23.441-3.022-46.877-4.25-70.332c-0.57-10.89-1.061-21.783-1.431-32.682 C1071.35,1050.254,1055.623,1050.208,1055.967,1060.347L1055.967,1060.347z"/></g><path style="fill: rgb(76, 175, 79);" d="M1070.013,1163.985L1070.013,1163.985c-21.887,0-39.63-17.743-39.63-39.63v-24.86 c0-21.887,17.743-39.63,39.63-39.63h0c21.887,0,39.63,17.743,39.63,39.63v24.86 C1109.643,1146.241,1091.9,1163.985,1070.013,1163.985z"/><g><path style="fill:#B8D5DC;" d="M919.521,408.61v386.783c0,18.598-12.423,34.449-29.386,39.639 c-3.816,1.174-7.863,1.803-12.056,1.803c-22.791,0-41.442-18.651-41.442-41.442V408.61c0-22.791,18.651-41.442,41.442-41.442 c4.194,0,8.24,0.629,12.056,1.803c6.573,2.013,12.465,5.619,17.214,10.368C914.855,386.856,919.521,397.214,919.521,408.61z"/><path style="fill:#FFFFFF;" d="M919.521,408.61v386.783c0,18.598-12.423,34.449-29.386,39.639 c-16.963-5.19-29.386-21.041-29.386-39.639V408.61c0-18.598,12.423-34.449,29.386-39.639c6.573,2.013,12.465,5.619,17.214,10.368 C914.855,386.856,919.521,397.214,919.521,408.61z"/><path style="fill:#B8D5DC;" d="M1275.57,408.61v386.783c0,18.598-12.423,34.449-29.386,39.639 c-3.816,1.174-7.863,1.803-12.056,1.803c-22.791,0-41.442-18.651-41.442-41.442V408.61c0-22.791,18.65-41.442,41.442-41.442 c4.193,0,8.24,0.629,12.056,1.803c6.573,2.013,12.465,5.619,17.214,10.368C1270.905,386.856,1275.57,397.214,1275.57,408.61z"/><path style="fill:#FFFFFF;" d="M1275.57,408.61v386.783c0,18.598-12.423,34.449-29.386,39.639 c-16.963-5.19-29.386-21.041-29.386-39.639V408.61c0-18.598,12.423-34.449,29.386-39.639c6.573,2.013,12.465,5.619,17.214,10.368 C1270.905,386.856,1275.57,397.214,1275.57,408.61z"/><path style="fill: rgb(121, 195, 123);" d="M1259.881,1114.599H784.639c-29.524,0-53.457-23.934-53.457-53.457V668.743 c0-29.524,23.934-53.457,53.458-53.457h475.242c29.524,0,53.457,23.934,53.457,53.457v392.398 C1313.339,1090.665,1289.405,1114.599,1259.881,1114.599z"/><path style="fill: rgb(76, 175, 79);" d="M1300.998,1114.599H860.793c-28.527,0-51.653-23.126-51.653-51.653V666.938 c0-28.527,23.126-51.653,51.653-51.653h440.205c28.527,0,51.653,23.126,51.653,51.653v396.008 C1352.65,1091.473,1329.525,1114.599,1300.998,1114.599z"/></g><g><polygon style="fill: rgb(121, 195, 123);" points="1001.756,1014.589 1076.466,904.277 993.015,904.277 1098.371,736.263 1167.559,736.263 &#10;&#9;&#9;&#9;1080.287,868.638 1167.559,868.638 &#9;&#9;"/><polygon style="fill:#FFFFFF;" points="1001.756,1014.589 1061.62,904.277 978.169,904.277 1083.524,736.263 1152.713,736.263 &#10;&#9;&#9;&#9;1065.441,868.638 1152.713,868.638 &#9;&#9;"/></g><g><g><g><path style="opacity:0.6;fill:#FFFFFF;" d="M1540.887,764.431c-162.673-6.111-301.307,141.619-307.507,281.613 c-3.897,87.987,45.45,151.974,123.036,188.893c105.397,54.819,100.811,159.475,100.811,159.475l141.936,5.332 c4.211-95.085,101.229-156.744,113.634-164.25c59.278-34.728,99.191-98.204,111.408-206.516 C1839.918,889.674,1703.559,770.541,1540.887,764.431z"/><path style="fill: rgb(121, 195, 123);" d="M1617.529,1434.842c0,0,19.971,30.277-1.835,58.111c-6.091,7.779-22.32,11.92-42.805,13.493 c-52.817,4.089-133.887-8.869-142.022-20.433c-11.291-16.061-4.487-34.03,8.534-37.888c0,0-17.466-14.845-11.92-32.289 c5.556-17.445,15.117-20.558,15.117-20.558s-13.367-8.314-13.597-31.766c-0.094-9.278,4.193-19.437,17.822-26.838 c20.81-11.312,63.405-16.187,145.408-1.635c0,0,37.007,6.909,26.188,48.183 C1618.42,1383.221,1643.497,1412.376,1617.529,1434.842z"/><path style="opacity:0.9;fill:#FFFFFF;" d="M1516.262,895.294c0,0-67.478,16.124-108.313,68.66 c-40.835,52.537-94.636,13.17-82.634-42.545c12.002-55.714,82.846-102.197,123.825-92.301 C1490.119,839.005,1553.278,859.591,1516.262,895.294z"/><g><path style="fill: rgb(76, 175, 79);" d="M1617.777,1437.421c-0.399,0.039-0.813-0.015-1.211-0.174 c-0.135-0.054-13.797-5.469-34.716-8.677c-19.248-2.951-48.768-4.587-80.097,4.387c-1.375,0.39-2.805-0.401-3.198-1.774 c-0.393-1.373,0.401-2.804,1.774-3.198c32.29-9.247,62.666-7.553,82.464-4.502c21.464,3.308,35.129,8.736,35.7,8.965 c1.325,0.532,1.967,2.037,1.435,3.361C1619.557,1436.737,1618.708,1437.33,1617.777,1437.421z"/></g><g><path style="fill: rgb(76, 175, 79);" d="M1618.665,1385.791c-0.315,0.031-0.64,0.003-0.963-0.089c-0.186-0.053-18.89-5.369-43.461-8.576 c-22.546-2.943-54.792-4.668-80.369,3.835c-1.354,0.448-2.819-0.283-3.269-1.638c-0.451-1.356,0.283-2.819,1.638-3.27 c26.528-8.819,59.643-7.068,82.75-4.045c24.936,3.261,43.947,8.668,44.136,8.723c1.373,0.394,2.166,1.825,1.773,3.198 C1620.599,1384.98,1619.69,1385.691,1618.665,1385.791z"/></g><path style="fill: rgb(76, 175, 79);" d="M1572.89,1506.445c-52.817,4.089-133.887-8.869-142.022-20.433 c-11.291-16.061-4.487-34.03,8.534-37.888c0,0-17.466-14.845-11.92-32.289c5.556-17.445,15.117-20.558,15.117-20.558 s-13.367-8.314-13.597-31.766c-0.094-9.278,4.193-19.437,17.822-26.838l0.031-0.01c0,0-17.749,45.394,24.186,59.379 c0,0,6.646,3.491,1.405,9.079c-5.242,5.598,1.048,36.347,14.321,42.637c13.283,6.29-3.145,30.402,13.629,42.637 C1513.301,1499.799,1554.554,1504.695,1572.89,1506.445z"/></g></g><g><path style="fill: rgb(121, 195, 123);" d="M1427.533,1140.908c-29.031-40.173-14.677-126.625,102.704-172.024 c103.485-40.025,136.806-89.514,136.806-89.514s39.045,122.866-16.935,217.737 C1581.787,1212.892,1465.101,1192.893,1427.533,1140.908z"/><g><path style="fill: rgb(76, 175, 79);" d="M1435.461,1228.455c-1.982,0-3.748-1.396-4.146-3.413c-0.199-1.021-18.591-102.56,107.738-180.3 c102.788-63.279,123.631-165.158,123.83-166.179c0.446-2.299,2.709-3.847,4.961-3.343c2.299,0.446,3.794,2.663,3.354,4.95 c-0.205,1.067-21.64,106.489-127.713,171.773c-121.373,74.703-104.055,170.495-103.867,171.457 c0.452,2.299-1.038,4.527-3.331,4.973C1436.012,1228.432,1435.737,1228.455,1435.461,1228.455z"/></g><g><path style="fill: rgb(76, 175, 79);" d="M1486.401,1091.658c-1.818,0-3.501-1.185-4.052-3.014c-13.201-43.714-0.387-74.198,0.164-75.465 c0.933-2.135,3.413-3.108,5.56-2.205c2.146,0.915,3.138,3.413,2.217,5.56c-0.123,0.281-12.087,29.077,0.164,69.671 c0.674,2.24-0.592,4.598-2.827,5.278C1487.216,1091.6,1486.806,1091.658,1486.401,1091.658z"/></g><g><path style="fill: rgb(76, 175, 79);" d="M1571.854,1047.123c-12.116,0-20.503-0.551-21.441-0.622c-2.334-0.164-4.093-2.182-3.929-4.516 c0.158-2.334,2.176-4.199,4.516-3.929c0.622,0.023,64.141,4.222,99.856-11.143c2.135-0.938,4.639,0.07,5.559,2.217 c0.927,2.158-0.07,4.645-2.217,5.571C1629.755,1045.211,1594.368,1047.123,1571.854,1047.123z"/></g></g></g><path style="fill: rgb(255, 255, 255);" d="M1249.84,1111.757c0,0,7.841,0.328,11.532-2.097c0,0,0.172,4.366-3.888,5.242 C1251.554,1116.182,1249.84,1111.757,1249.84,1111.757z"/><g style=""><ellipse transform="matrix(0.7071 -0.7071 0.7071 0.7071 129.0564 1252.1013)" style="opacity:0.1;fill:#FFE690;" cx="1575.948" cy="470.266" rx="193.437" ry="193.437"/><ellipse transform="matrix(0.7071 -0.7071 0.7071 0.7071 128.6463 1252.2711)" style="opacity:0.4;fill:#FFE690;" cx="1575.948" cy="470.846" rx="137.05" ry="137.049"/><circle style="fill:#FFE690;" cx="1575.948" cy="470.846" r="96.574"/></g></g></svg>